<svg width="20" height="21" fill="none" xmlns="http://www.w3.org/2000/svg"><path fill-rule="evenodd" clip-rule="evenodd" d="M4.16.057C3.43.28 2.928.93 2.852 1.749l-.04.436-.576.033c-.439.025-.664.075-.955.214C.82 2.65.374 3.083.159 3.52L0 3.84v15.455l.174.367c.301.64.886 1.103 1.604 1.269.18.042 3.212.067 8.175.068 6.902.001 7.94-.012 8.287-.102.869-.226 1.478-.87 1.665-1.76.078-.366.094-1.685.095-7.503 0-4.198-.025-7.217-.063-7.45a2.288 2.288 0 0 0-1.318-1.754c-.29-.138-.515-.188-.962-.214l-.584-.033v-.28c0-.457-.176-.927-.474-1.267-.362-.414-.715-.588-1.274-.628-.56-.04-.955.097-1.366.478-.394.365-.56.715-.6 1.264l-.031.451H6.556l-.005-.385a2.28 2.28 0 0 0-.083-.597C6.201.493 5.485-.01 4.732 0c-.223.003-.48.029-.572.057Zm.998 1.13c.3.218.4.519.4 1.201 0 .698-.088.987-.367 1.208-.225.177-.693.195-.937.035-.297-.196-.36-.418-.36-1.265 0-.69.016-.802.143-.98.272-.384.75-.469 1.121-.199ZM15.5 1.09c.12.05.286.178.368.283.14.18.148.243.128 1.086l-.021.895-.23.194c-.186.155-.295.193-.557.193-.28 0-.356-.03-.551-.228l-.227-.227v-.867c0-.789.014-.885.145-1.052.138-.176.46-.36.64-.366a1.11 1.11 0 0 1 .305.09ZM2.895 3.382c0 .417.646 1.14 1.18 1.324 1.061.363 2.086-.19 2.44-1.317.035-.11.243-.117 3.44-.1l3.404.017.124.33c.16.42.586.859 1.018 1.046.467.201 1.162.16 1.594-.094.38-.223.746-.65.865-1.007l.092-.275h.531c.457 0 .566.023.777.167.143.097.316.307.411.498.162.325.166.364.166 1.89v1.56H.965V5.93c0-.831.032-1.6.07-1.74.085-.307.42-.705.694-.825.11-.049.418-.09.684-.09.404-.003.482.014.482.106ZM18.923 13.61c.013 3.57-.003 5.229-.053 5.403-.09.316-.43.71-.712.829-.177.074-1.64.09-8.188.089-7.592-.002-7.986-.008-8.242-.125a1.301 1.301 0 0 1-.693-.796c-.045-.161-.07-2.068-.07-5.417V8.424l8.97.016 8.968.017.02 5.152Zm-6.492-1.69c-.172.157-.968.932-1.768 1.723s-1.476 1.447-1.502 1.456c-.059.022-.168-.076-1.149-1.034-.691-.675-.8-.756-1.01-.756-.176 0-.272.045-.374.176-.28.357-.232.434 1.056 1.714 1.111 1.104 1.212 1.187 1.439 1.187.227 0 .332-.086 1.484-1.22 3.017-2.968 2.805-2.74 2.805-3.009 0-.183-.043-.278-.175-.382-.264-.208-.455-.174-.806.146Z" fill="#161C2D"/></svg>