<svg width="14" height="17" fill="none" xmlns="http://www.w3.org/2000/svg"><mask id="path-1-inside-1_56_176" fill="#fff"><path d="M13.092 10.263c.21 0 .383.171.37.382a6.737 6.737 0 1 1-8.57-6.861.366.366 0 0 1 .454.278.402.402 0 0 1-.286.468 5.973 5.973 0 1 0 7.638 6.115.402.402 0 0 1 .394-.382Z"/></mask><path d="M13.092 10.263c.21 0 .383.171.37.382a6.737 6.737 0 1 1-8.57-6.861.366.366 0 0 1 .454.278.402.402 0 0 1-.286.468 5.973 5.973 0 1 0 7.638 6.115.402.402 0 0 1 .394-.382Z" stroke="#939393" stroke-width="2" mask="url('#path-1-inside-1_56_176')"/><path d="m3.368 8.123 3.369 4.21M12.677 1 6.782 12.406" stroke="#AAC004" stroke-linecap="round"/></svg>