<svg width="16" height="14" fill="none" xmlns="http://www.w3.org/2000/svg"><path d="M5.815 2.074C5.54 1.59 5.71.972 6.232.781c1.01-.371 2.1-.499 3.18-.365a6.745 6.745 0 0 1 3.77 1.754 6.547 6.547 0 0 1 1.983 3.607 6.478 6.478 0 0 1-.576 4.06 6.634 6.634 0 0 1-2.91 2.938 6.798 6.798 0 0 1-4.115.673 6.738 6.738 0 0 1-3.722-1.85 6.56 6.56 0 0 1-1.656-2.69c-.167-.525.213-1.035.758-1.117l4.204-.632a.99.99 0 0 0 .715-1.472L5.815 2.074Z" fill="#939393"/><path d="M4.429 1.173C4.157.694 3.544.515 3.108.846a6.605 6.605 0 0 0-1.924 2.316 6.487 6.487 0 0 0-.682 2.891c0 .553.522.931 1.07.849L5.77 6.27a.99.99 0 0 0 .715-1.472L4.43 1.173Z" fill="#AAC004"/></svg>