<svg width="38" height="29" fill="none" xmlns="http://www.w3.org/2000/svg"><rect x=".5" y="5.079" width="32.529" height="23.421" rx=".5" stroke="#939393"/><path fill="#939393" d="M0 9.158h32.92v3.816H0z"/><path stroke="#939393" stroke-linecap="round" d="M4.158 20.105h9.363M4.158 23.921h16.679"/><ellipse cx="30.177" cy="8.013" rx="7.824" ry="8.013" fill="#AAC004"/><path d="M36.01 8.013c0 3.318-2.623 5.987-5.833 5.987s-5.834-2.669-5.834-5.987 2.623-5.987 5.834-5.987c3.21 0 5.833 2.67 5.833 5.987Z" stroke="#fff"/><path d="M30.16 12.28V3.955h.52v8.325h-.52Zm1.752-5.828a1.024 1.024 0 0 0-.463-.767c-.271-.182-.604-.273-.997-.273-.288 0-.54.047-.756.143a1.211 1.211 0 0 0-.502.393.96.96 0 0 0-.177.57c0 .177.04.33.123.458.085.126.193.23.324.315.131.083.269.15.413.205.144.052.276.094.397.127l.66.182c.17.046.358.108.566.189.209.08.409.19.6.328.192.137.35.312.476.527.125.215.187.478.187.79 0 .36-.092.685-.276.976-.182.29-.449.521-.8.693-.35.17-.774.257-1.273.257-.466 0-.87-.077-1.21-.231a1.936 1.936 0 0 1-.8-.644 1.866 1.866 0 0 1-.327-.96h.813c.02.252.103.46.247.625.146.162.33.284.553.364.224.078.465.117.724.117.3 0 .57-.05.81-.15.238-.101.428-.242.568-.422.14-.182.21-.395.21-.638a.793.793 0 0 0-.182-.54 1.328 1.328 0 0 0-.476-.338 4.927 4.927 0 0 0-.638-.227l-.8-.235c-.508-.15-.91-.363-1.207-.64-.296-.278-.445-.641-.445-1.09 0-.373.099-.698.296-.975a1.97 1.97 0 0 1 .8-.65 2.647 2.647 0 0 1 1.127-.235c.42 0 .792.077 1.118.231.326.152.584.36.774.624.193.265.295.565.305.901h-.762Z" fill="#fff"/></svg>