<svg width="43" height="36" fill="none" xmlns="http://www.w3.org/2000/svg"><path d="M36.357 14.16v17.221a.5.5 0 0 1-.375.484L22.1 35.454a.5.5 0 0 1-.24.002L6.703 31.852l-.116.486.116-.486a.5.5 0 0 1-.384-.487V14.151a.5.5 0 0 1 .43-.496L20.628 11.7a.503.503 0 0 1 .134-.001l15.16 1.966a.5.5 0 0 1 .435.496Z" fill="#fff" stroke="#939393"/><path d="M6.197 14.054a.5.5 0 0 1 .468-.2l14.057 1.823a.5.5 0 0 1 .363.755l-4.97 8.2a.5.5 0 0 1-.543.228L1.581 21.532a.5.5 0 0 1-.288-.782l4.904-6.696ZM36.803 14.054a.5.5 0 0 0-.468-.2l-14.057 1.823a.5.5 0 0 0-.363.755l4.97 8.2a.5.5 0 0 0 .543.228l13.991-3.328a.5.5 0 0 0 .288-.782l-4.904-6.696Z" fill="#fff" stroke="#939393"/><path d="M21.662 15.379V35.65" stroke="#939393"/><path transform="matrix(.97074 .24013 -.20708 .97833 7.805 29.78)" stroke="#939393" stroke-linecap="round" d="M.5-.5h4.235"/><ellipse cx="21.142" cy="7.34" rx="7.525" ry="7.34" fill="#AAC004"/><path d="M26.733 7.34c0 2.993-2.491 5.441-5.591 5.441S15.55 10.333 15.55 7.34c0-2.994 2.492-5.442 5.592-5.442 3.1 0 5.591 2.448 5.591 5.442Z" stroke="#fff"/><path d="M21.125 11.248V3.622h.501v7.626h-.5Zm1.686-5.338a.933.933 0 0 0-.446-.703c-.26-.167-.58-.25-.959-.25-.276 0-.519.044-.726.13a1.157 1.157 0 0 0-.483.361.85.85 0 0 0-.171.522c0 .162.04.302.12.42.08.115.184.211.31.289.127.075.26.138.398.187.138.048.265.087.381.116l.636.167c.163.042.344.1.543.173.202.073.394.174.577.3.186.126.338.287.459.483.12.197.18.438.18.724 0 .33-.089.628-.266.894a1.797 1.797 0 0 1-.77.634c-.335.157-.744.236-1.224.236-.448 0-.836-.07-1.164-.212a1.847 1.847 0 0 1-.77-.59 1.657 1.657 0 0 1-.314-.878h.782c.02.23.1.42.238.572.14.149.318.26.532.333a2.2 2.2 0 0 0 .696.107c.289 0 .549-.045.779-.137.23-.093.412-.222.546-.387a.903.903 0 0 0 .202-.584.705.705 0 0 0-.174-.494 1.277 1.277 0 0 0-.458-.31 4.893 4.893 0 0 0-.614-.208l-.77-.215c-.489-.137-.875-.333-1.16-.587-.285-.254-.428-.587-.428-.998 0-.341.095-.64.284-.893a1.88 1.88 0 0 1 .77-.596 2.655 2.655 0 0 1 1.084-.215c.403 0 .761.071 1.075.212.313.139.562.33.745.572.185.242.283.517.293.825h-.733Z" fill="#fff"/></svg>