<svg width="36" height="35" fill="none" xmlns="http://www.w3.org/2000/svg"><mask id="path-1-inside-1_62_84" fill="#fff"><path d="M13.282 7.455c-.269-.483-.097-1.096.404-1.328a13.575 13.575 0 0 1 15.042 2.458 13.542 13.542 0 0 1 2.849 15.786 13.554 13.554 0 0 1-5.895 6.048 13.574 13.574 0 0 1-15.875-2.425 13.543 13.543 0 0 1-3.629-6.548c-.123-.539.255-1.05.8-1.133l10.995-1.68a1 1 0 0 0 .722-1.476l-5.413-9.702Z"/></mask><path d="M13.282 7.455c-.269-.483-.097-1.096.404-1.328a13.575 13.575 0 0 1 15.042 2.458 13.542 13.542 0 0 1 2.849 15.786 13.554 13.554 0 0 1-5.895 6.048 13.574 13.574 0 0 1-15.875-2.425 13.543 13.543 0 0 1-3.629-6.548c-.123-.539.255-1.05.8-1.133l10.995-1.68a1 1 0 0 0 .722-1.476l-5.413-9.702Z" stroke="#939393" stroke-width="2" mask="url('#path-1-inside-1_62_84')"/><path d="M10.49 5.625c-.27-.482-.88-.659-1.342-.355a13.534 13.534 0 0 0-6.065 12.372c.043.55.558.925 1.104.842l10.994-1.68a1 1 0 0 0 .721-1.476L10.49 5.625Z" fill="#AAC004"/></svg>