<svg width="16" height="15" fill="none" xmlns="http://www.w3.org/2000/svg"><path d="M15.5 7.212c0 3.982-3.358 7.211-7.5 7.211-4.142 0-7.5-3.229-7.5-7.211C.5 3.229 3.858 0 8 0c4.142 0 7.5 3.229 7.5 7.212Z" fill="#AAC004"/><path d="M5.463 5.177c.035-.668.264-1.205.685-1.611.457-.442 1.08-.662 1.87-.662.73 0 1.33.203 1.798.609.457.398.686.902.686 1.512 0 .855-.408 1.529-1.225 2.021-.367.219-.619.428-.756.627-.132.191-.199.443-.199.756v.38H7.297v-.538c-.004-.715.387-1.309 1.172-1.782.344-.21.586-.42.726-.626.145-.215.217-.477.217-.786 0-.367-.13-.668-.392-.902-.266-.238-.614-.357-1.043-.357-.442 0-.795.12-1.061.363-.27.242-.42.574-.451.996H5.463Zm2.426 6.352a.793.793 0 0 1-.586-.229.793.793 0 0 1-.229-.586c0-.238.076-.435.229-.592a.793.793 0 0 1 .586-.228c.238 0 .431.076.58.228a.8.8 0 0 1 .228.592.793.793 0 0 1-.228.586.774.774 0 0 1-.58.229Z" fill="#fff"/></svg>